HIERARCHY
ROOT joint_Root
{
  OFFSET 0 0 0
  CHANNELS 6 Xposition Yposition Zposition Zrotation Xrotation Yrotation
  JOINT Hips
  {
    OFFSET 0.0408292 93.9915 0.0639531
    CHANNELS 6 Xposition Yposition Zposition Zrotation Xrotation Yrotation
    JOINT Spine
    {
      OFFSET 15.7357 0 0
      CHANNELS 6 Xposition Yposition Zposition Zrotation Xrotation Yrotation
      JOINT Chest
      {
        OFFSET 8.98455 -0.406207 0
        CHANNELS 6 Xposition Yposition Zposition Zrotation Xrotation Yrotation
        JOINT Neck
        {
          OFFSET 16.3773 0 0
          CHANNELS 6 Xposition Yposition Zposition Zrotation Xrotation Yrotation
          JOINT Head
          {
            OFFSET 6.45672 0 0
            CHANNELS 6 Xposition Yposition Zposition Zrotation Xrotation Yrotation
            End Site
            {
              OFFSET 10 0 0
            }
          }
        }
        JOINT Shoulder_L
        {
          OFFSET 12.9942 -0.242716 4.98039
          CHANNELS 6 Xposition Yposition Zposition Zrotation Xrotation Yrotation
          JOINT UpperArm_L
          {
            OFFSET 5.34809 0 0
            CHANNELS 6 Xposition Yposition Zposition Zrotation Xrotation Yrotation
            JOINT LowerArm_L
            {
              OFFSET 24.3286 1.87007e-05 0
              CHANNELS 6 Xposition Yposition Zposition Zrotation Xrotation Yrotation
              JOINT Hand_L
              {
                OFFSET 22.2916 0 0
                CHANNELS 6 Xposition Yposition Zposition Zrotation Xrotation Yrotation
                End Site
                {
                  OFFSET 5 0 0
                }
              }
            }
          }
        }
        JOINT Shoulder_R
        {
          OFFSET 12.9945 -0.242716 -4.98039
          CHANNELS 6 Xposition Yposition Zposition Zrotation Xrotation Yrotation
          JOINT UpperArm_R
          {
            OFFSET -5.34813 0 0
            CHANNELS 6 Xposition Yposition Zposition Zrotation Xrotation Yrotation
            JOINT LowerArm_R
            {
              OFFSET -24.3289 0.000322201 0
              CHANNELS 6 Xposition Yposition Zposition Zrotation Xrotation Yrotation
              JOINT Hand_R
              {
                OFFSET -22.2915 -0.000108084 0
                CHANNELS 6 Xposition Yposition Zposition Zrotation Xrotation Yrotation
                End Site
                {
                  OFFSET -5 0 0
                }
              }
            }
          }
        }
      }
    }
    JOINT UpperLeg_L
    {
      OFFSET -2.19248 -6.46944 0
      CHANNELS 6 Xposition Yposition Zposition Zrotation Xrotation Yrotation
      JOINT LowerLeg_L
      {
        OFFSET 39.0811 0 -1.23785e-05
        CHANNELS 6 Xposition Yposition Zposition Zrotation Xrotation Yrotation
        JOINT Foot_L
        {
          OFFSET 40.9854 0 -1.26872e-05
          CHANNELS 6 Xposition Yposition Zposition Zrotation Xrotation Yrotation
          JOINT Toes_L
          {
            OFFSET 11.7543 0 0
            CHANNELS 6 Xposition Yposition Zposition Zrotation Xrotation Yrotation
            End Site
            {
              OFFSET 5 0 0
            }
          }
        }
      }
    }
    JOINT UpperLeg_R
    {
      OFFSET -2.19251 6.46944 0
      CHANNELS 6 Xposition Yposition Zposition Zrotation Xrotation Yrotation
      JOINT LowerLeg_R
      {
        OFFSET -39.0811 0 0
        CHANNELS 6 Xposition Yposition Zposition Zrotation Xrotation Yrotation
        JOINT Foot_R
        {
          OFFSET -40.9854 0 0
          CHANNELS 6 Xposition Yposition Zposition Zrotation Xrotation Yrotation
          JOINT Toes_R
          {
            OFFSET -11.7543 0 0
            CHANNELS 6 Xposition Yposition Zposition Zrotation Xrotation Yrotation
            End Site
            {
              OFFSET -5 0 0
            }
          }
        }
      }
    }
  }
}
MOTION
Frames:	4
Frame Time:	0.0333333
0 0 0 0 0 -0 0.676123 94.0062 1.02726e-14 86.6062 0.0790611 -1.4479 15.7357 5.1072e-06 -5.51765e-07 88.6141 85.3533 -88.0042 8.98455 -0.406207 -4.3199e-07 1.97844 -0.112396 1.10074 16.3773 -1.3905e-06 -6.99897e-07 -10.3907 -0.732401 2.8292 6.45672 -1.25837e-06 -1.02172e-07 -13.3415 0.127316 0.5064 12.9942 -0.242716 4.98039 -89.8688 8.95809 -87.3077 5.34809 -7.22636e-06 -6.2814e-07 -85.641 -4.53245 20.8791 24.3286 1.87007e-05 4.90208e-06 1.58902e-15 -1.77316e-13 -0.000406887 22.2916 -9.88446e-07 4.63217e-06 65.4993 76.4864 -83.8708 12.9945 -0.242716 -4.98039 89.9059 10.4091 -85.9562 -5.34813 -1.25947e-06 -3.79883e-06 -106.677 49.4596 37.3735 -24.3289 0.000322201 -8.65921e-06 0.000909701 -0.000149173 -13.6927 -22.2915 -0.000108084 -4.47941e-06 26.6709 43.0553 -50.8173 -2.19248 -6.46944 -1.22534e-07 178.834 -3.50819 -11.0805 39.0811 -6.73843e-06 -1.23785e-05 6.5646e-07 -2.59835e-06 14.1788 40.9854 -6.48686e-06 -1.26872e-05 2.27663 9.64791 -54.1 11.7543 -2.30145e-07 3.05095e-06 0.186371 0.0825241 -15.1452 -2.19251 6.46944 -1.45247e-06 -179.876 -0.213891 160.969 -39.0811 0 3.55271e-15 1.03007e-17 9.93923e-17 42.3286 -40.9854 7.72618e-06 5.99936e-06 0.297476 -10.2803 -55.3222 -11.7543 -5.6619e-06 -5.58687e-06 -0.454752 -3.33328 -18.4877 
0 0 -4 0 0 -0 0.739126 93.74 0.853495 86.8895 -1.41602 -1.02938 15.7357 5.1072e-06 -5.51765e-07 91.5081 85.7961 -91.1618 8.98455 -0.406207 -4.3199e-07 1.99268 0.118076 0.867739 16.3773 -1.3905e-06 -6.99897e-07 -9.77128 -0.382882 2.67555 6.45672 -1.25837e-06 -1.02172e-07 -13.0619 0.436779 0.692571 12.9942 -0.242716 4.98039 -89.9031 9.01098 -87.094 5.34809 -7.22636e-06 -6.2814e-07 -85.6559 -4.06271 20.6705 24.3286 1.87007e-05 4.90208e-06 -2.01664e-15 -1.39944e-13 -0.0117871 22.2916 -9.88446e-07 4.63217e-06 68.1656 76.6918 -86.2448 12.9945 -0.242716 -4.98039 89.9074 10.5145 -85.9676 -5.34813 -1.25947e-06 -3.79883e-06 -106.861 49.8348 37.3871 -24.3289 0.000322201 -8.65921e-06 0.000909941 -0.000148684 -13.6486 -22.2915 -0.000108084 -4.47941e-06 26.3601 43.2269 -50.4495 -2.19248 -6.46944 -1.22534e-07 178.654 -3.37205 -13.3945 39.0811 -6.73843e-06 -1.23785e-05 3.81567e-07 -1.40703e-06 15.1728 40.9854 -6.48686e-06 -1.26872e-05 0.745136 8.25002 -52.2927 11.7543 -2.30145e-07 3.05095e-06 0.253224 0.307759 -14.9091 -2.19251 6.46944 -1.45247e-06 179.595 0.234637 166.869 -39.0811 0 -3.55271e-15 1.03906e-15 1.98785e-16 43.0972 -40.9854 7.72618e-06 5.99936e-06 -1.99007 -4.0554 -54.5104 -11.7543 -5.6619e-06 -5.58687e-06 -0.329958 -2.70318 -18.5237 
0 0 -8 0 0 -0 0.679602 93.359 1.45882 87.1256 -2.71138 -0.807398 15.7357 5.1072e-06 -5.51765e-07 95.391 86.3109 -95.3736 8.98455 -0.406207 -4.3199e-07 2.00987 0.362008 0.647538 16.3773 -1.3905e-06 -6.99897e-07 -9.10428 -0.108258 2.58685 6.45672 -1.25837e-06 -1.02172e-07 -12.7246 0.70192 0.807108 12.9942 -0.242716 4.98039 -89.9362 8.86445 -86.8929 5.34809 -7.22636e-06 -6.2814e-07 -85.7209 -3.89474 20.7459 24.3286 1.87007e-05 4.90208e-06 -1.16989e-17 -1.86062e-13 -0.00360255 22.2916 -9.88446e-07 4.63217e-06 69.4843 76.8469 -87.2862 12.9945 -0.242716 -4.98039 89.9088 10.6058 -85.9779 -5.34813 -1.25947e-06 -3.79883e-06 -107.235 50.0814 37.7221 -24.3289 0.000322201 -8.65921e-06 0.000909246 -0.000150113 -13.774 -22.2915 -0.000108084 -4.47941e-06 25.6444 43.4535 -49.7319 -2.19248 -6.46944 -1.22534e-07 178.71 -3.09083 -16.0002 39.0811 -6.73843e-06 -1.23785e-05 3.82065e-07 -1.33672e-06 15.9512 40.9854 -6.48686e-06 -1.26872e-05 -0.907081 6.82632 -50.2325 11.7543 -2.30145e-07 3.05095e-06 0.271662 0.373565 -14.8432 -2.19251 6.46944 -1.45247e-06 179.438 0.584514 172.72 -39.0811 0 0 1.42583e-15 -3.97569e-16 41.928 -40.9854 7.72618e-06 5.99936e-06 -5.24307 4.07947 -51.9894 -11.7543 -5.6619e-06 -5.58687e-06 -0.198449 -2.01895 -18.5095 
0 0 -12 0 0 -0 0.48563 92.8612 1.62945 87.3267 -3.74862 -0.847295 15.7357 5.1072e-06 -5.51765e-07 98.8257 86.6583 -99.223 8.98455 -0.406207 -4.3199e-07 2.04828 0.53668 0.441179 16.3773 -1.3905e-06 -6.99897e-07 -8.58887 0.140652 2.53442 6.45672 -1.25837e-06 -1.02172e-07 -12.4088 0.940987 0.964674 12.9942 -0.242716 4.98039 -89.9644 8.73383 -86.7195 5.34809 -7.22636e-06 -6.2814e-07 -85.7951 -3.6545 21.2035 24.3286 1.87007e-05 4.90208e-06 -2.40397e-05 4.14858e-07 -0.988666 22.2916 -9.88446e-07 4.63217e-06 67.458 77.4326 -85.0204 12.9945 -0.242716 -4.98039 89.9019 10.644 -85.9395 -5.34813 -1.25947e-06 -3.79883e-06 -107.379 50.0406 37.8867 -24.3289 0.000322201 -8.65921e-06 0.000908577 -0.000151447 -13.8958 -22.2915 -0.000108084 -4.47941e-06 25.2603 43.7696 -49.4638 -2.19248 -6.46944 -1.22534e-07 178.99 -2.78479 -18.7509 39.0811 -6.73843e-06 -1.23785e-05 3.82221e-07 -1.34378e-06 15.8777 40.9854 -6.48686e-06 -1.26872e-05 -2.81055 5.47749 -47.5905 11.7543 -2.30145e-07 3.05095e-06 0.257474 0.275829 -14.8259 -2.19251 6.46944 -1.45247e-06 179.799 0.88325 177.999 -39.0811 0 -1.77636e-15 -1.0188e-15 0 38.6965 -40.9854 7.72618e-06 5.99936e-06 -8.89568 11.8838 -47.2702 -11.7543 -5.6619e-06 -5.58687e-06 -0.0765658 -1.32541 -18.3691 
